<svg width="1240" height="443" viewBox="0 0 1240 443" fill="none" xmlns="http://www.w3.org/2000/svg">
<g style="mix-blend-mode:plus-lighter" opacity="0.2">
<path fill-rule="evenodd" clip-rule="evenodd" d="M1079.34 -80.5342L1279.14 -80.5342V119.257H1257.73C1159.21 119.257 1079.34 39.3914 1079.34 -59.128V-80.5342Z" fill="#A3A3A3" fill-opacity="0.2"/>
<path fill-rule="evenodd" clip-rule="evenodd" d="M1059.85 -80.5342L860.061 -80.5342V119.257H881.467C979.987 119.257 1059.85 39.3914 1059.85 -59.128V-80.5342Z" fill="#A3A3A3" fill-opacity="0.2"/>
<path fill-rule="evenodd" clip-rule="evenodd" d="M830.823 119.257L633.468 119.257V-80.5343H654.614C751.932 -80.5343 830.823 -0.668594 830.823 97.8507V119.257Z" fill="#A3A3A3" fill-opacity="0.2"/>
<path fill-rule="evenodd" clip-rule="evenodd" d="M409.312 119.257L609.104 119.257V-80.5343H587.698C489.178 -80.5343 409.312 -0.668594 409.312 97.8507V119.257Z" fill="#A3A3A3" fill-opacity="0.2"/>
<path d="M828.322 389.706V391.704H828.824V392.206H830.822V395.7H828.322V399.695H830.822V403.691H828.322V407.687H830.822V411.683H828.322V415.679H830.822V419.675H828.322V423.671H830.822V427.666H828.322V431.662H830.822V435.658H828.322V439.654H830.822V443.649H828.322V447.645H830.822V451.641H828.322V455.637H830.822V459.633H828.322V463.629H830.822V467.625H828.322V471.62H830.822V475.616H828.322V479.612H830.822V483.608H828.322V487.603H830.822V491.599H828.322V495.596H830.822V499.591H828.322V503.587H830.822V507.583H828.322V511.579H830.822V515.574H828.322V519.57H830.822V523.566H828.322V527.562H830.822V531.557H828.322V535.554H830.822V539.55H828.322V543.545H830.822V547.541H828.322V551.537H830.822V555.533H828.322V559.528H830.822V563.524H828.322V567.52H830.822V571.516H828.322V575.512H830.822V579.508H828.322V583.504H830.822V586.997H829.039V587.499H828.322V589.497H825.471V586.997H821.903V589.497H818.336V586.997H814.768V589.497H811.2V586.997H809.416C808.754 586.997 808.094 586.993 807.434 586.986L807.406 589.483C806.067 589.468 804.732 589.438 803.4 589.393L803.483 586.899C802.167 586.856 800.855 586.798 799.547 586.725L799.409 589.218C798.071 589.144 796.737 589.056 795.406 588.953L795.601 586.463C794.289 586.361 792.981 586.245 791.678 586.114L791.429 588.599C790.095 588.466 788.766 588.317 787.441 588.154L787.746 585.676C786.439 585.515 785.137 585.34 783.839 585.151L783.479 587.621C782.155 587.428 780.836 587.222 779.521 587L779.938 584.538C778.638 584.319 777.343 584.085 776.054 583.838L775.582 586.292C774.27 586.04 772.963 585.772 771.661 585.491L772.188 583.05C770.899 582.772 769.615 582.48 768.337 582.175L767.755 584.602C766.457 584.292 765.164 583.967 763.877 583.628L764.513 581.214C763.237 580.878 761.968 580.528 760.704 580.165L760.013 582.564C758.731 582.196 757.454 581.814 756.185 581.418L756.93 579.033C755.671 578.64 754.417 578.233 753.17 577.812L752.371 580.181C751.106 579.754 749.849 579.311 748.597 578.857L749.449 576.511C748.21 576.061 746.977 575.598 745.751 575.122L744.847 577.448C743.602 576.965 742.364 576.468 741.134 575.958L742.091 573.652C740.874 573.148 739.664 572.629 738.461 572.099L737.452 574.383C736.23 573.843 735.015 573.292 733.808 572.726L734.869 570.465C733.677 569.906 732.491 569.333 731.313 568.749L730.202 570.988H730.201C729.005 570.394 727.817 569.786 726.637 569.166L727.798 566.954C726.633 566.342 725.475 565.719 724.325 565.082L723.115 567.266C721.947 566.618 720.786 565.959 719.634 565.286L720.893 563.13C719.756 562.467 718.628 561.791 717.508 561.103L716.2 563.23C715.062 562.532 713.932 561.821 712.812 561.098L714.166 558.999C713.061 558.285 711.964 557.56 710.876 556.822L709.473 558.891C708.367 558.141 707.27 557.38 706.183 556.607L707.632 554.571C706.559 553.809 705.495 553.035 704.44 552.249L702.947 554.252C701.877 553.454 700.816 552.644 699.764 551.823L701.301 549.854C700.263 549.045 699.235 548.224 698.217 547.391L696.638 549.325C695.604 548.481 694.58 547.625 693.565 546.758L695.188 544.86C694.187 544.005 693.196 543.139 692.216 542.262L690.552 544.123C689.557 543.233 688.571 542.333 687.597 541.422L689.303 539.598C688.342 538.699 687.391 537.79 686.45 536.87L684.702 538.656C683.748 537.723 682.804 536.78 681.871 535.826L683.659 534.078C682.739 533.137 681.829 532.187 680.931 531.225L679.105 532.932C678.194 531.957 677.295 530.972 676.405 529.977L678.267 528.312C677.39 527.332 676.523 526.341 675.668 525.341L673.77 526.963C672.902 525.948 672.047 524.924 671.202 523.891L673.137 522.311C672.305 521.293 671.483 520.265 670.674 519.227L668.704 520.764C667.883 519.711 667.073 518.65 666.275 517.579L668.279 516.088C667.494 515.033 666.72 513.97 665.958 512.897L663.92 514.345C663.147 513.257 662.387 512.16 661.638 511.055L663.706 509.653C662.969 508.565 662.243 507.468 661.529 506.362L659.43 507.716C658.706 506.595 657.996 505.465 657.297 504.327L659.426 503.02C658.738 501.9 658.062 500.772 657.398 499.636L655.241 500.893C654.569 499.741 653.909 498.581 653.262 497.413L655.447 496.203C654.81 495.053 654.186 493.896 653.574 492.73L651.362 493.891C650.742 492.709 650.134 491.522 649.54 490.325L651.779 489.215C651.195 488.037 650.623 486.852 650.064 485.66L647.802 486.72C647.236 485.512 646.684 484.297 646.145 483.075L648.43 482.068C647.899 480.865 647.382 479.655 646.877 478.438L644.569 479.393C644.059 478.163 643.563 476.925 643.079 475.681L645.407 474.777C644.931 473.551 644.468 472.318 644.019 471.079L641.67 471.931C641.216 470.679 640.774 469.421 640.348 468.156L642.716 467.358C642.295 466.112 641.888 464.859 641.495 463.599L639.109 464.344C638.713 463.073 638.332 461.797 637.963 460.515L640.363 459.824C640 458.56 639.65 457.291 639.314 456.016L636.899 456.65C636.561 455.363 636.235 454.071 635.925 452.772L638.354 452.191C638.048 450.913 637.756 449.629 637.479 448.341L635.036 448.867C634.756 447.565 634.487 446.258 634.235 444.945L636.69 444.474C636.443 443.185 636.209 441.891 635.99 440.592L633.527 441.007C633.306 439.692 633.099 438.373 632.906 437.049L635.377 436.689C635.188 435.391 635.013 434.089 634.853 432.782L632.374 433.086C632.211 431.761 632.061 430.432 631.928 429.099L634.414 428.85C634.284 427.547 634.167 426.24 634.065 424.929L631.575 425.121C631.472 423.791 631.385 422.457 631.311 421.119L633.804 420.981C633.731 419.673 633.673 418.361 633.63 417.045L631.134 417.127C631.09 415.795 631.059 414.461 631.044 413.122L633.542 413.096L633.531 411.112V409.328H631.031V405.761H633.531V402.193H631.031V398.625H633.531V395.057H631.031V392.206H633.029V391.49H633.531V389.706H637.025V392.206H641.021V389.706H645.017V392.206H649.013V389.706H653.009V392.206H657.004V389.706H661V392.206H664.996V389.706H668.991V392.206H672.987V389.706H676.983V392.206H680.979V389.706H684.975V392.206H688.971V389.706H692.967V392.206H696.962V389.706H700.958V392.206H704.954V389.706H708.95V392.206H712.945V389.706H716.941V392.206H720.938V389.706H724.934V392.206H728.929V389.706H732.925V392.206H736.921V389.706H740.916V392.206H744.912V389.706H748.908V392.206H752.904V389.706H756.899V392.206H760.896V389.706H764.892V392.206H768.888V389.706H772.883V392.206H776.879V389.706H780.875V392.206H784.87V389.706H788.866V392.206H792.862V389.706H796.858V392.206H800.854V389.706H804.85V392.206H808.846V389.706H812.841V392.206H816.837V389.706H820.833V392.206H824.829V389.706H828.322Z" stroke="#A3A3A3" stroke-opacity="0.3" stroke-width="5" stroke-dasharray="4 4"/>
<path fill-rule="evenodd" clip-rule="evenodd" d="M611.54 389.706H411.749V589.497H433.155C531.674 589.497 611.54 509.631 611.54 411.112V389.706Z" fill="#A3A3A3" fill-opacity="0.2"/>
<path fill-rule="evenodd" clip-rule="evenodd" d="M382.511 589.497H185.156L185.156 389.706H206.301C303.619 389.706 382.511 469.571 382.511 568.091V589.497Z" fill="#A3A3A3" fill-opacity="0.2"/>
<path fill-rule="evenodd" clip-rule="evenodd" d="M-39 589.497H160.791L160.791 389.706H139.385C40.8657 389.706 -39 469.571 -39 568.091V589.497Z" fill="#A3A3A3" fill-opacity="0.2"/>
<path d="M158.793 158.24V159.24H159.791V160.238H160.791V164.234H159.791V168.23H160.791V172.226H159.791V176.222H160.791V180.218H159.791V184.213H160.791V188.209H159.791V192.205H160.791V196.2H159.791V200.196H160.791V204.193H159.791V208.189H160.791V212.184H159.791V216.18H160.791V220.176H159.791V224.171H160.791V228.167H159.791V232.163H160.791V236.159H159.791V240.154H160.791V244.151H159.791V248.147H160.791V252.143H159.791V256.138H160.791V260.134H159.791V264.13H160.791V268.125H159.791V272.121H160.791L160.791 276.117H159.791V280.113H160.791V284.109H159.791V288.105H160.791V292.101H159.791V296.097H160.791V300.092H159.791V304.088H160.791V308.084H159.791V312.079H160.791V316.075H159.791V320.071H160.791V324.068H159.791V328.063H160.791V332.059H159.791V336.055H160.791V340.05H159.791V344.046H160.791V348.042H159.791V352.038H160.791V356.033H159.791V357.031H159.008V358.031H155.439V357.031H151.872V358.031H148.305V357.031H144.736V358.031H141.169V357.031H139.385C138.718 357.031 138.051 357.028 137.386 357.021L137.375 358.018C136.036 358.003 134.701 357.972 133.369 357.928L133.402 356.933C132.075 356.889 130.752 356.83 129.433 356.757L129.378 357.752C128.04 357.678 126.705 357.591 125.375 357.487L125.453 356.492C124.131 356.39 122.811 356.272 121.497 356.141L121.397 357.134C120.064 357 118.735 356.851 117.41 356.689L117.532 355.699C116.214 355.537 114.901 355.361 113.592 355.17L113.447 356.155C112.124 355.963 110.804 355.756 109.49 355.534L109.656 354.552C108.346 354.331 107.04 354.095 105.739 353.845L105.551 354.826C104.238 354.574 102.932 354.306 101.63 354.026L101.84 353.051C100.54 352.771 99.2459 352.476 97.957 352.168L97.7236 353.137C96.4254 352.826 95.1328 352.501 93.8457 352.162L94.0996 351.199C92.8133 350.861 91.5325 350.507 90.2578 350.141L89.9814 351.099C88.6995 350.73 87.4232 350.349 86.1533 349.952L86.4512 348.999C85.1814 348.603 83.9175 348.193 82.6602 347.769L82.3398 348.715C81.075 348.288 79.8174 347.846 78.5654 347.392L78.9062 346.455C77.6565 346.002 76.4133 345.535 75.1768 345.055L74.8154 345.983C73.571 345.499 72.3332 345.003 71.1025 344.492L71.4844 343.572C70.2571 343.063 69.0365 342.541 67.8232 342.005L67.4209 342.917C66.199 342.378 64.9837 341.827 63.7764 341.261L64.2012 340.357C62.9987 339.793 61.8028 339.217 60.6152 338.627L60.1709 339.523H60.1699C58.9738 338.929 57.7862 338.32 56.6055 337.7L57.0703 336.818C55.8949 336.201 54.7271 335.57 53.5674 334.928L53.084 335.8C51.9154 335.153 50.7549 334.493 49.6025 333.82L50.1055 332.96C48.9592 332.291 47.8211 331.61 46.6914 330.916L46.1689 331.765C45.031 331.066 43.9011 330.355 42.7803 329.632L43.3213 328.794C42.2064 328.075 41.1004 327.342 40.0029 326.599L39.4414 327.425C38.3359 326.676 37.239 325.915 36.1514 325.142L36.7314 324.328C35.6499 323.559 34.577 322.779 33.5137 321.986L32.916 322.786C31.8453 321.989 30.7844 321.179 29.7324 320.358L30.3467 319.571C29.3006 318.755 28.2635 317.927 27.2363 317.088L26.6064 317.859C25.5727 317.015 24.5485 316.159 23.5342 315.292L24.1816 314.535C23.1729 313.673 22.1736 312.799 21.1846 311.914L20.5205 312.657C19.5256 311.768 18.5401 310.868 17.5654 309.956L18.2471 309.228C17.2779 308.321 16.3187 307.404 15.3701 306.477L14.6709 307.191C13.7169 306.258 12.7728 305.314 11.8398 304.36L12.5557 303.661C11.6279 302.713 10.7102 301.754 9.80371 300.784L9.07422 301.466C8.16302 300.492 7.26343 299.506 6.37402 298.512L7.11719 297.847C6.23275 296.858 5.35946 295.859 4.49707 294.85L3.73828 295.497C2.87119 294.483 2.01544 293.459 1.1709 292.425L1.94336 291.795C1.10416 290.768 0.276392 289.731 -0.540039 288.685L-1.32715 289.298C-2.14826 288.246 -2.95803 287.184 -3.75586 286.113L-2.9541 285.519C-3.74629 284.455 -4.52717 283.382 -5.2959 282.301L-6.11133 282.879C-6.88433 281.792 -7.64452 280.694 -8.39355 279.589L-7.56738 279.028C-8.31096 277.931 -9.04227 276.825 -9.76172 275.71L-10.6016 276.25C-11.325 275.129 -12.0356 273.999 -12.7344 272.861L-11.8838 272.34C-12.5775 271.21 -13.2588 270.072 -13.9277 268.926L-14.79 269.428C-15.4624 268.276 -16.1225 267.116 -16.7695 265.947L-15.8965 265.465C-16.5387 264.305 -17.1683 263.137 -17.7852 261.962L-18.6689 262.425C-19.2888 261.244 -19.8973 260.056 -20.4912 258.859L-19.5957 258.416C-20.1852 257.229 -20.7617 256.034 -21.3252 254.831L-22.2295 255.254C-22.7953 254.047 -23.3473 252.832 -23.8867 251.609L-22.9736 251.208C-23.5092 249.995 -24.0311 248.774 -24.54 247.547L-25.4619 247.928C-25.9723 246.697 -26.4687 245.459 -26.9521 244.215L-26.0225 243.856C-26.5028 242.619 -26.9696 241.375 -27.4229 240.125L-28.3613 240.465C-28.8153 239.213 -29.257 237.955 -29.6836 236.691L-28.7363 236.372C-29.1604 235.115 -29.5713 233.851 -29.9678 232.581L-30.9219 232.878C-31.3185 231.608 -31.6996 230.331 -32.0684 229.049L-31.1094 228.774C-31.476 227.499 -31.8284 226.218 -32.167 224.932L-33.1318 225.185C-33.4707 223.898 -33.7958 222.605 -34.1064 221.307L-33.1367 221.075C-33.4451 219.786 -33.7394 218.491 -34.0195 217.192L-34.9951 217.401C-35.2757 216.099 -35.5439 214.792 -35.7959 213.48L-34.8135 213.292C-35.0632 211.992 -35.2984 210.686 -35.5195 209.375L-36.5039 209.541C-36.7257 208.227 -36.9321 206.907 -37.125 205.583L-36.1387 205.44C-36.3293 204.131 -36.5051 202.817 -36.667 201.499L-37.6572 201.62C-37.82 200.295 -37.97 198.967 -38.1035 197.633L-37.1094 197.534C-37.241 196.22 -37.3582 194.902 -37.4609 193.579L-38.4561 193.655C-38.5594 192.325 -38.6467 190.991 -38.7207 189.653L-37.7256 189.599C-37.7985 188.279 -37.8574 186.956 -37.9014 185.629L-38.8975 185.661C-38.9416 184.33 -38.9725 182.995 -38.9873 181.656L-37.9893 181.647L-38 179.647V177.862H-39V174.295H-38V170.728H-39V167.159H-38V163.592H-39V160.025H-38V159.24H-37.002V158.24H-33.0059V159.24H-29.0107V158.24H-25.0146V159.24H-21.0186V158.24H-17.0225V159.24H-13.0273V158.24H-9.03125V159.24H-5.03516V158.24H-1.04004V159.24H2.95605V158.24H6.95215V159.24H10.9482V158.24H14.9434V159.24H18.9395V158.24H22.9355V159.24H26.9307V158.24H30.9268V159.24H34.9229V158.24H38.9189V159.24H42.9141V158.24H46.9102V159.24H50.9062V158.24H54.9023V159.24H58.8975V158.24H62.8936V159.24H66.8896V158.24H70.8848V159.24H74.8809V158.24L78.877 158.24V159.24H82.873V158.24H86.8682V159.24H90.8643V158.24H94.8604V159.24H98.8564V158.24H102.852V159.24H106.848V158.24H110.844V159.24H114.839V158.24H118.835V159.24H122.831V158.24H126.827V159.24H130.822V158.24H134.818V159.24H138.814V158.24H142.81V159.24H146.806V158.24H150.802V159.24H154.798V158.24H158.793Z" stroke="#A3A3A3" stroke-opacity="0.3" stroke-width="2" stroke-dasharray="4 4"/>
<path fill-rule="evenodd" clip-rule="evenodd" d="M380.074 358.031H180.283L180.283 158.24H201.689C300.209 158.24 380.074 238.106 380.074 336.625V358.031Z" fill="#A3A3A3" fill-opacity="0.2"/>
<path d="M1076.97 589.497V587.499H1076.47V586.997H1074.47V583.503H1076.97V579.508H1074.47V575.512H1076.97V571.516H1074.47V567.519H1076.97V563.524H1074.47V559.528H1076.97V555.532H1074.47V551.537H1076.97V547.541H1074.47V543.545H1076.97V539.549H1074.47V535.554H1076.97V531.557H1074.47V527.561H1076.97V523.566H1074.47V519.57H1076.97V515.574H1074.47V511.578H1076.97V507.583H1074.47V503.587H1076.97V499.591H1074.47V495.595H1076.97V491.599H1074.47V487.603H1076.97V483.607H1074.47V479.612H1076.97V475.616H1074.47V471.62H1076.97V467.624H1074.47V463.629H1076.97V459.633H1074.47V455.637H1076.97V451.641H1074.47V447.645H1076.97V443.649H1074.47V439.653H1076.97V435.658H1074.47V431.662H1076.97V427.666H1074.47V423.67H1076.97V419.675H1074.47V415.679H1076.97V411.682H1074.47V407.686H1076.97V403.691H1074.47V399.695H1076.97V395.699H1074.47V392.206H1076.25V391.704H1076.97V389.706H1079.82V392.206H1083.39V389.706H1086.96V392.206H1090.53V389.706H1094.09V392.206H1095.88C1096.54 392.206 1097.2 392.209 1097.86 392.217L1097.89 389.72C1099.23 389.734 1100.56 389.765 1101.89 389.809L1101.81 392.304C1103.13 392.347 1104.44 392.405 1105.75 392.477L1105.88 389.985C1107.22 390.059 1108.56 390.147 1109.89 390.25L1109.69 392.74C1111 392.842 1112.31 392.958 1113.62 393.089L1113.86 390.603C1115.2 390.737 1116.53 390.886 1117.85 391.049L1117.55 393.527C1118.85 393.688 1120.16 393.863 1121.45 394.052L1121.81 391.582C1123.14 391.775 1124.46 391.981 1125.77 392.203L1125.36 394.665C1126.65 394.884 1127.95 395.118 1129.24 395.365L1129.71 392.911C1131.02 393.163 1132.33 393.431 1133.63 393.712L1133.11 396.153C1134.39 396.431 1135.68 396.722 1136.96 397.028L1137.54 394.6C1138.84 394.911 1140.13 395.236 1141.42 395.575L1140.78 397.989C1142.06 398.325 1143.33 398.674 1144.59 399.038L1145.28 396.639C1146.56 397.007 1147.84 397.389 1149.11 397.785L1148.36 400.17C1149.62 400.563 1150.88 400.97 1152.12 401.391L1152.92 399.022C1154.19 399.449 1155.44 399.892 1156.7 400.346L1155.84 402.692C1157.08 403.142 1158.32 403.605 1159.54 404.081L1160.45 401.755C1161.69 402.238 1162.93 402.735 1164.16 403.245L1163.2 405.551C1164.42 406.055 1165.63 406.573 1166.83 407.104L1167.84 404.82C1169.06 405.36 1170.28 405.911 1171.49 406.476L1170.42 408.738C1171.62 409.297 1172.8 409.869 1173.98 410.454L1175.09 408.215H1175.09C1176.29 408.809 1177.48 409.417 1178.66 410.037L1177.5 412.249C1178.66 412.86 1179.82 413.484 1180.97 414.121L1182.18 411.937C1183.35 412.585 1184.51 413.244 1185.66 413.917L1184.4 416.073C1185.54 416.736 1186.67 417.412 1187.79 418.099L1189.09 415.973C1190.23 416.671 1191.36 417.382 1192.48 418.105L1191.13 420.204C1192.23 420.917 1193.33 421.643 1194.42 422.381L1195.82 420.312C1196.93 421.062 1198.02 421.822 1199.11 422.596L1197.66 424.632C1198.73 425.394 1199.8 426.168 1200.85 426.954L1202.35 424.951C1203.42 425.749 1204.48 426.559 1205.53 427.38L1203.99 429.349C1205.03 430.158 1206.06 430.979 1207.08 431.811L1208.66 429.878C1209.69 430.722 1210.71 431.578 1211.73 432.445L1210.11 434.343C1211.11 435.198 1212.1 436.064 1213.08 436.941L1214.74 435.08C1215.74 435.97 1216.72 436.87 1217.7 437.781L1215.99 439.605C1216.95 440.504 1217.9 441.413 1218.84 442.333L1220.59 440.547C1221.54 441.48 1222.49 442.423 1223.42 443.377L1221.63 445.125C1222.55 446.066 1223.46 447.016 1224.36 447.977L1226.19 446.271C1227.1 447.246 1228 448.231 1228.89 449.225L1227.03 450.891C1227.9 451.871 1228.77 452.862 1229.62 453.862L1231.52 452.24C1232.39 453.254 1233.25 454.279 1234.09 455.312L1232.16 456.891C1232.99 457.91 1233.81 458.938 1234.62 459.975L1236.59 458.439C1237.41 459.492 1238.22 460.553 1239.02 461.624L1237.01 463.115C1237.8 464.169 1238.57 465.233 1239.33 466.306L1241.37 464.858C1242.15 465.946 1242.91 467.043 1243.66 468.148L1241.59 469.55C1242.32 470.638 1243.05 471.735 1243.76 472.841L1245.86 471.487C1246.59 472.608 1247.3 473.738 1248 474.876L1245.87 476.182C1246.56 477.303 1247.23 478.431 1247.89 479.567L1250.05 478.309C1250.72 479.462 1251.38 480.622 1252.03 481.79L1249.85 483C1250.48 484.15 1251.11 485.307 1251.72 486.473L1253.93 485.312C1254.55 486.493 1255.16 487.681 1255.75 488.878L1253.51 489.988C1254.1 491.166 1254.67 492.351 1255.23 493.543L1257.49 492.483C1258.06 493.691 1258.61 494.906 1259.15 496.128L1256.86 497.135C1257.39 498.337 1257.91 499.548 1258.42 500.765L1260.72 499.809C1261.23 501.04 1261.73 502.278 1262.21 503.522L1259.89 504.426C1260.36 505.652 1260.83 506.885 1261.27 508.124L1263.62 507.272C1264.08 508.524 1264.52 509.782 1264.95 511.047L1262.58 511.845C1263 513.091 1263.4 514.344 1263.8 515.603L1266.18 514.859C1266.58 516.129 1266.96 517.406 1267.33 518.688L1264.93 519.379C1265.29 520.643 1265.64 521.912 1265.98 523.187L1268.39 522.553C1268.73 523.84 1269.06 525.132 1269.37 526.431L1266.94 527.012C1267.25 528.29 1267.54 529.574 1267.81 530.862L1270.26 530.336C1270.54 531.638 1270.81 532.945 1271.06 534.258L1268.6 534.728C1268.85 536.018 1269.08 537.312 1269.3 538.611L1271.77 538.196C1271.99 539.511 1272.19 540.83 1272.39 542.154L1269.92 542.514C1270.11 543.811 1270.28 545.114 1270.44 546.421L1272.92 546.117C1273.08 547.442 1273.23 548.771 1273.37 550.104L1270.88 550.352C1271.01 551.656 1271.13 552.963 1271.23 554.274L1273.72 554.082C1273.82 555.412 1273.91 556.746 1273.98 558.084L1271.49 558.222C1271.56 559.53 1271.62 560.842 1271.66 562.158L1274.16 562.076C1274.2 563.407 1274.23 564.742 1274.25 566.081L1271.75 566.107L1271.76 568.091V569.875H1274.26V573.442H1271.76V577.01H1274.26V580.578H1271.76V584.145H1274.26V586.997H1272.26V587.713H1271.76V589.497H1268.27V586.997H1264.27V589.497H1260.28V586.997H1256.28V589.497H1252.28V586.997H1248.29V589.497H1244.29V586.997H1240.3V589.497H1236.3V586.997H1232.31V589.497H1228.31V586.997H1224.31V589.497H1220.32V586.997H1216.32V589.497H1212.33V586.997H1208.33V589.497H1204.33V586.997H1200.34V589.497H1196.34V586.997H1192.35V589.497H1188.35V586.997H1184.36V589.497H1180.36V586.997H1176.36V589.497H1172.37V586.997H1168.37V589.497H1164.38V586.997H1160.38V589.497H1156.38V586.997H1152.39V589.497H1148.39V586.997H1144.4V589.497H1140.4V586.997H1136.41V589.497H1132.41V586.997H1128.41V589.497H1124.42V586.997H1120.42V589.497H1116.43V586.997H1112.43V589.497H1108.43V586.997H1104.44V589.497H1100.44V586.997H1096.45V589.497H1092.45V586.997H1088.46V589.497H1084.46V586.997H1080.46V589.497H1076.97Z" stroke="#A3A3A3" stroke-opacity="0.3" stroke-width="5" stroke-dasharray="4 4"/>
<path fill-rule="evenodd" clip-rule="evenodd" d="M852.752 589.497H1050.11V389.706H1028.96C931.644 389.706 852.752 469.571 852.752 568.091V589.497Z" fill="#A3A3A3" fill-opacity="0.2"/>
<path fill-rule="evenodd" clip-rule="evenodd" d="M852.752 158.24L1050.11 158.24V358.031H1028.96C931.644 358.031 852.752 278.166 852.752 179.646V158.24Z" fill="#A3A3A3" fill-opacity="0.2"/>
<path fill-rule="evenodd" clip-rule="evenodd" d="M1269.39 358.031H1072.03V158.24H1093.18C1190.5 158.24 1269.39 238.106 1269.39 336.625V358.031Z" fill="#A3A3A3" fill-opacity="0.2"/>
<path d="M411.812 358.031V356.033H411.286V355.531H409.312V352.037H411.812V348.042H409.312V344.046H411.812V340.05H409.312V336.054H411.812V332.058H409.312V328.062H411.812V324.066H409.312V320.071H411.812V316.075H409.312V312.079H411.812V308.083H409.312V304.088H411.812V300.092H409.312V296.096H411.812V292.1H409.312V288.104H411.812V284.108H409.312V280.112H411.812V276.117H409.312V272.121H411.812V268.125H409.312V264.129H411.812V260.134H409.312V256.138H411.812V252.141H409.312V248.146H411.812V244.15H409.312V240.154H411.812V236.158H409.312V232.163H411.812V228.167H409.312V224.171H411.812V220.175H409.312V216.18H411.812V212.183H409.312V208.187H411.812V204.192H409.312V200.196H411.812V196.2H409.312V192.204H411.812V188.209H409.312V184.213H411.812V180.217H409.312V176.221H411.812V172.225H409.312V168.229H411.812V164.233H409.312V160.74H411.074V160.238H411.812V158.24H414.599V160.74H418.123V158.24H421.646V160.74H425.171V158.24H428.695V160.74H430.457C431.115 160.74 431.772 160.743 432.428 160.751L432.456 158.254C433.787 158.269 435.113 158.3 436.437 158.345L436.352 160.839C437.659 160.883 438.964 160.942 440.264 161.016L440.404 158.522C441.734 158.597 443.059 158.686 444.381 158.791L444.184 161.281C445.486 161.384 446.786 161.502 448.08 161.634L448.334 159.148C449.659 159.283 450.98 159.435 452.296 159.599L451.985 162.077C453.283 162.239 454.577 162.416 455.866 162.607L456.233 160.139C457.549 160.334 458.859 160.543 460.165 160.767L459.742 163.228C461.032 163.45 462.318 163.686 463.598 163.936L464.077 161.484C465.381 161.739 466.679 162.009 467.973 162.293L467.437 164.733C468.716 165.014 469.99 165.309 471.259 165.618L471.851 163.192C473.14 163.506 474.423 163.836 475.701 164.179L475.055 166.59C476.32 166.929 477.579 167.282 478.833 167.649L479.536 165.254C480.809 165.627 482.076 166.014 483.337 166.415L482.579 168.794C483.828 169.191 485.07 169.603 486.307 170.027L487.118 167.664C488.373 168.095 489.621 168.54 490.862 168.999L489.996 171.342C491.225 171.795 492.447 172.263 493.662 172.744L494.582 170.423C495.816 170.911 497.042 171.413 498.262 171.929L497.29 174.228C498.496 174.738 499.695 175.26 500.887 175.796L501.911 173.519C503.121 174.063 504.324 174.621 505.52 175.191L504.443 177.444C505.624 178.008 506.798 178.585 507.964 179.175L509.092 176.946C510.276 177.545 511.454 178.154 512.623 178.779L511.443 180.984C512.597 181.601 513.743 182.23 514.881 182.872L516.109 180.696C517.265 181.348 518.412 182.014 519.552 182.691L518.275 184.838C519.399 185.506 520.515 186.187 521.623 186.88L522.948 184.764C524.073 185.467 525.19 186.184 526.298 186.912L524.926 188.998C526.018 189.716 527.102 190.447 528.178 191.189L529.597 189.135C530.689 189.888 531.773 190.653 532.847 191.431L531.382 193.454C532.441 194.221 533.491 194.999 534.532 195.789L536.044 193.799C537.101 194.601 538.148 195.415 539.187 196.24L537.631 198.196C538.654 199.01 539.669 199.835 540.674 200.671L542.272 198.751C543.292 199.599 544.302 200.459 545.302 201.33L543.661 203.214C544.647 204.072 545.624 204.943 546.591 205.823L548.272 203.977C549.253 204.87 550.223 205.775 551.184 206.689L549.461 208.497C550.408 209.399 551.345 210.311 552.271 211.234L554.035 209.466C554.974 210.401 555.904 211.347 556.822 212.304L555.021 214.033C555.926 214.976 556.821 215.93 557.706 216.893L559.548 215.203C560.445 216.18 561.33 217.167 562.205 218.164L560.327 219.812C561.19 220.795 562.041 221.788 562.882 222.79L564.796 221.183C565.649 222.199 566.49 223.225 567.32 224.261L565.371 225.823C566.189 226.843 566.996 227.872 567.791 228.91L569.773 227.391C570.58 228.444 571.375 229.507 572.159 230.578L570.144 232.052C570.915 233.106 571.674 234.17 572.423 235.242L574.472 233.813C575.231 234.901 575.979 235.997 576.715 237.102L574.634 238.486C575.357 239.574 576.07 240.67 576.77 241.774L578.881 240.437C579.591 241.558 580.288 242.688 580.974 243.825L578.833 245.114C579.507 246.233 580.17 247.359 580.82 248.494L582.987 247.253C583.646 248.403 584.293 249.562 584.928 250.728L582.733 251.921C583.357 253.068 583.969 254.224 584.568 255.387L586.788 254.243C587.395 255.422 587.99 256.608 588.572 257.802L586.327 258.894C586.899 260.069 587.459 261.251 588.006 262.439L590.276 261.395C590.83 262.599 591.371 263.81 591.898 265.028L589.605 266.021C590.125 267.22 590.632 268.427 591.126 269.64L593.439 268.698C593.939 269.925 594.425 271.158 594.897 272.398L592.563 273.288C593.029 274.509 593.482 275.737 593.922 276.972L596.274 276.135C596.718 277.381 597.149 278.634 597.566 279.893L595.195 280.679C595.606 281.92 596.004 283.168 596.389 284.422L598.778 283.689C599.166 284.954 599.539 286.225 599.899 287.501L597.495 288.179C597.85 289.437 598.191 290.701 598.52 291.971L600.938 291.347C601.268 292.627 601.586 293.913 601.89 295.204L599.458 295.775C599.757 297.047 600.042 298.325 600.313 299.607L602.757 299.091C603.031 300.385 603.292 301.685 603.538 302.99L601.082 303.452C601.324 304.735 601.552 306.023 601.767 307.315L604.231 306.908C604.448 308.215 604.649 309.526 604.837 310.843L602.365 311.195C602.55 312.486 602.72 313.781 602.877 315.081L605.356 314.783C605.515 316.1 605.661 317.421 605.791 318.747L603.305 318.99C603.432 320.286 603.546 321.586 603.646 322.89L606.138 322.701C606.239 324.023 606.322 325.35 606.395 326.68L603.901 326.813C603.972 328.114 604.029 329.419 604.071 330.726L606.567 330.646C606.61 331.97 606.641 333.297 606.655 334.628L604.156 334.653L604.167 336.625V338.409H606.667V341.976H604.167V345.544H606.667V349.112H604.167V352.68H606.667V355.531H604.693V356.247H604.167V358.031H600.746V355.531H596.799V358.031H592.853V355.531H588.905V358.031H584.958V355.531H581.011V358.031H577.063V355.531H573.117V358.031H569.17V355.531H565.223V358.031H561.275V355.531H557.328V358.031H553.381V355.531H549.435V358.031H545.487V355.531H541.54V358.031H537.593V355.531H533.646V358.031H529.698V355.531H525.752V358.031H521.805V355.531H517.857V358.031H513.91V355.531H509.963V358.031H506.016V355.531H502.069V358.031H498.122V355.531H494.175V358.031H490.228V355.531H486.28V358.031H482.333V355.531H478.387V358.031H474.439V355.531H470.492V358.031H466.545V355.531H462.598V358.031H458.651V355.531H454.704V358.031H450.757V355.531H446.81V358.031H442.862V355.531H438.915V358.031H434.969V355.531H431.021V358.031H427.074V355.531H423.127V358.031H419.18V355.531H415.232V358.031H411.812Z" stroke="#A3A3A3" stroke-opacity="0.3" stroke-width="5" stroke-dasharray="4 4"/>
<path fill-rule="evenodd" clip-rule="evenodd" d="M631.031 358.031H830.823V158.24H809.416C710.897 158.24 631.031 238.106 631.031 336.625V358.031Z" fill="#A3A3A3" fill-opacity="0.2"/>
</g>
</svg>
