<svg width="21" height="21" viewBox="0 0 21 21" fill="none" xmlns="http://www.w3.org/2000/svg">
<g clip-path="url(#clip0_1166_2933)">
<path d="M20.0463 8.60588L11.5485 8.60547C11.1733 8.60547 10.8691 8.90959 10.8691 9.28483V11.9995C10.8691 12.3746 11.1733 12.6788 11.5485 12.6788H16.3339C15.8099 14.0387 14.8319 15.1776 13.5841 15.9012L15.6246 19.4335C18.8977 17.5405 20.8329 14.219 20.8329 10.5008C20.8329 9.97139 20.7939 9.59294 20.7158 9.16679C20.6565 8.84302 20.3754 8.60588 20.0463 8.60588Z" fill="#167EE6"/>
<path d="M10.4169 16.757C8.07499 16.757 6.03056 15.4774 4.93253 13.584L1.40039 15.6199C3.19788 18.7352 6.56514 20.833 10.4169 20.833C12.3064 20.833 14.0893 20.3243 15.6252 19.4377V19.4329L13.5847 15.9006C12.6514 16.4419 11.5713 16.757 10.4169 16.757Z" fill="#12B347"/>
<path d="M15.6253 19.4375V19.4327L13.5848 15.9004C12.6515 16.4417 11.5715 16.7568 10.417 16.7568V20.8329C12.3065 20.8329 14.0895 20.3241 15.6253 19.4375Z" fill="#0F993E"/>
<path d="M4.07609 10.4164C4.07609 9.26204 4.39111 8.18209 4.93233 7.24878L1.40019 5.21289C0.508707 6.74394 0 8.52201 0 10.4164C0 12.3107 0.508707 14.0888 1.40019 15.6199L4.93233 13.584C4.39111 12.6507 4.07609 11.5707 4.07609 10.4164Z" fill="#FFD500"/>
<path d="M10.4169 4.07609C11.944 4.07609 13.3468 4.61873 14.4424 5.52136C14.7127 5.74402 15.1056 5.72795 15.3532 5.48035L17.2766 3.55693C17.5575 3.276 17.5375 2.81616 17.2374 2.55583C15.4017 0.963257 13.0132 0 10.4169 0C6.56515 0 3.19788 2.09786 1.40039 5.21318L4.93254 7.24906C6.03056 5.35563 8.07499 4.07609 10.4169 4.07609Z" fill="#FF4B26"/>
<path d="M14.4426 5.52136C14.7129 5.74402 15.1058 5.72795 15.3533 5.48035L17.2767 3.55693C17.5576 3.276 17.5376 2.81616 17.2376 2.55583C15.4018 0.963216 13.0133 0 10.417 0V4.07609C11.9441 4.07609 13.3469 4.61873 14.4426 5.52136Z" fill="#D93F21"/>
</g>
<defs>
<clipPath id="clip0_1166_2933">
<rect width="20.8333" height="20.8333" fill="white"/>
</clipPath>
</defs>
</svg>
